<svg xmlns="http://www.w3.org/2000/svg" xmlns:xlink="http://www.w3.org/1999/xlink" width="500" zoomAndPan="magnify" viewBox="0 0 375 374.999991" height="500" preserveAspectRatio="xMidYMid meet" version="1.0"><path fill="#4fc4c9" d="M 375 187.5 C 375 291.050781 291.050781 375 187.5 375 C 83.949219 375 0 291.050781 0 187.5 C 0 83.949219 83.949219 0 187.5 0 C 291.050781 0 375 83.949219 375 187.5 " fill-opacity="1" fill-rule="nonzero"/><path fill="#ffffff" d="M 128.382812 208.511719 C 123.773438 214.671875 117.796875 221.304688 109.890625 226.355469 C 102.128906 231.257812 93.449219 235.199219 83.1875 235.199219 C 73.714844 235.199219 65.667969 230.144531 61.214844 226.039062 C 54.617188 219.878906 51.125 210.722656 50.097656 202.355469 C 46.859375 175.988281 62.980469 141.40625 87.96875 126.242188 C 93.699219 122.765625 100.113281 121.035156 105.957031 121.035156 C 117.957031 121.035156 126.917969 129.582031 128.167969 139.792969 C 129.300781 149.003906 125.609375 156.953125 115.355469 162.109375 C 110.121094 164.738281 107.523438 164.621094 106.710938 163.359375 C 106.164062 162.519531 106.472656 161.105469 107.523438 160.226562 C 117.160156 152.207031 117.351562 145.628906 116.210938 136.351562 C 115.472656 130.378906 111.535156 126.558594 107.113281 126.558594 C 88.164062 126.558594 60.992188 168.875 64.769531 199.671875 C 66.242188 211.675781 73.636719 225.570312 88.789062 225.570312 C 93.84375 225.570312 99.199219 224.148438 103.960938 221.773438 C 114.515625 216.410156 119.234375 212.460938 125.589844 203.777344 C 126.40625 202.671875 127.203125 201.402344 128.144531 200.144531 C 128.804688 199.039062 129.710938 198.722656 130.5 198.722656 C 131.449219 198.722656 132.332031 199.511719 132.488281 200.777344 C 132.605469 201.71875 132.308594 203.140625 131.21875 204.5625 C 130.269531 205.832031 129.335938 207.246094 128.382812 208.511719 " fill-opacity="1" fill-rule="nonzero"/><path fill="#ffffff" d="M 157.03125 223.984375 C 152.292969 223.984375 149.609375 221.457031 148.675781 217.671875 C 145.542969 221.773438 141.394531 223.984375 136.976562 223.984375 C 129.710938 223.984375 122.796875 217.824219 121.789062 209.617188 C 120.023438 195.242188 132.425781 176.613281 151.058594 176.613281 C 158.949219 176.613281 165.5 179.773438 166.273438 186.085938 C 167.242188 193.984375 160.492188 195.5625 157.964844 195.5625 C 155.753906 195.5625 152.199219 194.9375 151.949219 192.878906 C 151.675781 190.667969 156.730469 191.929688 156.105469 186.875 C 155.71875 183.722656 152.429688 182.617188 149.269531 182.617188 C 137.902344 182.617188 131.621094 198.40625 132.828125 208.195312 C 133.371094 212.617188 135.648438 217.035156 139.75 217.035156 C 143.066406 217.035156 147.855469 212.300781 149.6875 205.351562 C 150.84375 200.613281 155.351562 197.460938 158.664062 197.460938 C 160.40625 197.460938 161.605469 198.25 161.816406 199.980469 C 161.894531 200.613281 161.835938 201.402344 161.636719 202.355469 C 161.261719 204.410156 159.675781 211.238281 159.746094 212.652344 C 159.804688 213.882812 160.515625 215.582031 162.667969 215.582031 C 165.039062 215.582031 176.21875 209.070312 182.710938 200.230469 C 183.242188 199.441406 184.289062 198.960938 185.238281 198.960938 C 186.1875 198.960938 187.039062 199.441406 187.164062 200.546875 C 187.304688 201.652344 186.847656 203.074219 185.503906 204.964844 C 178.078125 215.230469 162.554688 223.984375 157.03125 223.984375 " fill-opacity="1" fill-rule="nonzero"/><path fill="#ffffff" d="M 313.792969 218.621094 C 314.351562 223.195312 316.457031 226.195312 318.410156 227.933594 C 319.121094 228.566406 319.53125 229.355469 319.59375 229.828125 C 319.746094 231.09375 318.777344 232.199219 317.195312 232.199219 C 316.722656 232.199219 316.089844 232.199219 315.574219 231.882812 C 307.4375 228.566406 304.070312 223.042969 303.109375 217.824219 C 299.96875 221.773438 295.8125 223.984375 291.554688 223.984375 C 284.292969 223.984375 277.199219 217.671875 276.1875 209.457031 C 274.441406 195.242188 287.316406 176.613281 305.628906 176.613281 C 313.375 176.613281 320.054688 179.617188 320.828125 185.933594 C 321.820312 193.984375 314.90625 195.5625 312.542969 195.5625 C 310.171875 195.5625 306.613281 194.9375 306.367188 192.878906 C 306.117188 190.824219 311.300781 191.929688 310.699219 187.039062 C 310.316406 183.875 307 182.617188 303.839844 182.617188 C 293.261719 182.617188 285.988281 196.664062 287.382812 208.042969 C 287.949219 212.617188 290.066406 217.035156 294.175781 217.035156 C 297.492188 217.035156 302.433594 212.300781 304.269531 205.351562 C 305.441406 200.777344 309.929688 197.460938 313.246094 197.460938 C 314.820312 197.460938 316.183594 198.25 316.414062 200.144531 C 316.535156 201.09375 316.15625 203.140625 314.382812 210.570312 C 313.664062 213.722656 313.519531 216.410156 313.792969 218.621094 " fill-opacity="1" fill-rule="nonzero"/><path fill="#ffffff" d="M 215.503906 215.742188 C 218.03125 215.742188 226.261719 212.597656 232.757812 203.75 C 233.449219 202.960938 234.339844 202.492188 235.28125 202.492188 C 236.386719 202.492188 237.234375 202.960938 237.398438 204.230469 C 237.511719 205.171875 236.894531 206.59375 235.546875 208.488281 C 228.128906 218.757812 215.589844 223.96875 210.0625 223.96875 C 204.375 223.96875 201.265625 220.488281 200.632812 215.28125 C 200.417969 213.542969 200.476562 211.496094 200.835938 209.285156 C 202.722656 197.589844 207.039062 190.335938 206.765625 188.117188 C 206.6875 187.492188 206.335938 187.175781 205.859375 187.175781 C 202.226562 187.175781 189.46875 200.28125 187.535156 208.96875 L 186.019531 215.914062 C 185.042969 220.804688 180.21875 223.96875 176.902344 223.96875 C 175.328125 223.96875 174.121094 223.179688 173.90625 221.441406 C 173.828125 220.804688 173.886719 220.019531 174.09375 219.066406 C 174.09375 219.066406 180.390625 186.695312 180.679688 185.144531 C 181.382812 181.339844 182.753906 177.425781 190.488281 177.425781 C 192.074219 177.425781 193.273438 178.214844 193.503906 180.105469 C 193.582031 180.742188 193.523438 181.527344 193.324219 182.480469 L 191.167969 192.230469 C 197.949219 183.226562 208.503906 176.59375 214.828125 176.59375 C 217.507812 176.59375 219.582031 178.015625 219.933594 180.859375 C 220.121094 182.4375 219.65625 185.117188 218.613281 188.117188 C 216.359375 194.277344 213.832031 203.527344 212.164062 211.496094 C 211.800781 213.183594 212.394531 215.742188 215.503906 215.742188 " fill-opacity="1" fill-rule="nonzero"/><path fill="#ffffff" d="M 258.695312 178.035156 C 258.695312 182.453125 260.90625 187.039062 263.75 190.035156 C 264.855469 187.039062 265.488281 184.039062 265.488281 181.03125 C 265.488281 175.351562 263.277344 172.824219 261.539062 172.824219 C 259.484375 172.824219 258.695312 175.667969 258.695312 178.035156 Z M 268.332031 201.71875 C 267.382812 201.71875 266.59375 201.71875 265.640625 201.566406 C 258.539062 211.828125 251.113281 218.9375 245.433594 222.089844 C 243.0625 223.359375 240.851562 223.984375 239.273438 223.984375 C 238.007812 223.984375 236.585938 223.675781 235.960938 222.5625 C 233.433594 218.304688 232.328125 209.617188 232.328125 200.613281 C 232.328125 193.984375 232.796875 188.613281 234.058594 184.664062 C 235.324219 180.5625 240.535156 176.613281 244.011719 176.613281 C 245.75 176.613281 247.011719 177.5625 247.011719 179.457031 C 247.011719 180.089844 246.855469 180.878906 246.539062 181.667969 C 244.167969 188.613281 242.90625 195.089844 242.90625 201.566406 C 242.90625 205.199219 243.695312 211.039062 244.484375 214.039062 C 244.644531 214.671875 244.800781 215.304688 245.433594 215.304688 C 246.539062 215.304688 253.957031 208.042969 259.328125 199.191406 C 254.589844 196.195312 251.902344 190.667969 251.902344 183.875 C 251.902344 172.507812 258.695312 166.667969 265.324219 166.667969 C 270.542969 166.667969 275.277344 170.453125 275.277344 178.035156 C 275.277344 182.769531 273.378906 188.140625 270.695312 193.351562 C 270.695312 193.351562 271.800781 193.511719 272.273438 193.511719 C 276.382812 193.511719 279.535156 191.613281 281.277344 189.566406 C 282.542969 188.140625 283.648438 187.191406 284.753906 187.191406 C 285.542969 187.191406 285.859375 187.824219 285.859375 188.613281 C 285.859375 189.09375 285.695312 189.882812 285.226562 190.667969 C 281.4375 197.460938 274.175781 201.71875 268.332031 201.71875 " fill-opacity="1" fill-rule="nonzero"/></svg>